<svg width="100" height="100" viewBox="0 0 100 100" fill="none" xmlns="http://www.w3.org/2000/svg">
  <path d="M24.544 68.584q-1.2 0-1.968-.672-.72-.624-.72-1.392 0-.864.24-1.296.288-.48 1.2-.672a78 78 0 0 0 4.656-1.248 75 75 0 0 0 4.56-1.584q2.112-.864 3.408-1.68 1.344-.816 1.344-1.44 0-.576-1.056-1.104-1.056-.576-2.688-1.248a187 187 0 0 1-3.504-1.488 24.3 24.3 0 0 1-3.504-1.872q-1.632-1.056-2.688-2.4a5.1 5.1 0 0 1-1.056-3.168q0-2.784 1.344-5.184 1.392-2.448 3.6-4.512a36 36 0 0 1 4.848-3.792 58 58 0 0 1 5.28-3.12q2.64-1.392 4.704-2.448a4.8 4.8 0 0 1 1.296-.528 5 5 0 0 1 1.104-.144q1.392 0 2.016.624t.624 1.44q0 .672-.72 1.584-.72.864-2.064 1.536t-3.216.672H41.2a58 58 0 0 0-3.552 2.064q-1.92 1.2-3.792 2.64T30.4 41.128q-1.536 1.488-2.496 2.88-.912 1.392-.912 2.544 0 1.392 1.056 2.496t2.688 1.968a72 72 0 0 0 3.504 1.68 51 51 0 0 1 3.504 1.68q1.68.816 2.736 1.824 1.056.96 1.056 2.256 0 1.488-1.056 2.832-1.008 1.344-2.688 2.496a27 27 0 0 1-3.696 2.016 42 42 0 0 1-3.888 1.488q-1.92.624-3.456.96-1.488.336-2.208.336" fill="url(#a)"/>
  <path d="M44.942 65.944q-.912 0-1.536-.864t-.624-3.648q0-2.016.528-4.992a90 90 0 0 1 1.392-6.384 271 271 0 0 1 1.92-6.816 185 185 0 0 1 3.792-11.424q.768-2.112 1.104-2.832.192-.48.672-.864t1.008-.384q1.104 0 1.392.576t.288 1.248q0 1.056-.96 4.848-.96 3.744-2.976 11.136a73 73 0 0 1 4.128-.816q2.256-.384 4.512-.72 2.304-.336 4.224-.576 1.968-.288 3.264-.432 1.344-.144 1.632-.144.336 0 .816.192a232 232 0 0 1 1.488-5.424q.72-2.496 1.248-4.176.528-1.728.72-2.304 1.008-2.4 2.4-2.4.816 0 1.344.576t.528 1.68q0 .912-.384 3.072t-1.056 5.088a203 203 0 0 1-1.44 6.24 484 484 0 0 1-1.584 6.528 429 429 0 0 1-1.488 6.048 611 611 0 0 1-1.152 4.704q-.432 1.92-.528 2.496a9.3 9.3 0 0 1-.624 2.208q-.432 1.056-1.632 1.056-.96 0-1.296-1.248-.288-1.248-.288-3.216 0-2.208.384-5.04.384-2.88 1.008-6.048.672-3.168 1.44-6.288a69 69 0 0 1-3.6.768 314 314 0 0 1-10.272 1.824q-2.688.432-4.944.72-1.296 5.184-2.064 8.784-.72 3.552-1.296 5.424-.576 1.824-1.488 1.824" fill="url(#b)"/>
  <defs>
    <linearGradient id="a" x1="28" y1="65" x2="65" y2="40.5" gradientUnits="userSpaceOnUse">
      <stop stop-color="#4776E6"/>
      <stop offset="1" stop-color="#8E54E9"/>
    </linearGradient>
    <linearGradient id="b" x1="28" y1="65" x2="65" y2="40.5" gradientUnits="userSpaceOnUse">
      <stop stop-color="#4776E6"/>
      <stop offset="1" stop-color="#8E54E9"/>
    </linearGradient>
  </defs>
</svg>
